<mxfile host="app.diagrams.net" modified="2024-07-21T12:38:22.425Z" agent="Mozilla/5.0 (Windows NT 10.0; Win64; x64) AppleWebKit/537.36 (KHTML, like Gecko) Chrome/126.0.0.0 Safari/537.36 Edg/126.0.0.0" etag="4KpUZw_xVG-4FZSUqNdR" version="24.7.1" type="device">
  <diagram id="C5RBs43oDa-KdzZeNtuy" name="Page-1">
    <mxGraphModel dx="1426" dy="759" grid="1" gridSize="10" guides="1" tooltips="1" connect="1" arrows="1" fold="1" page="1" pageScale="1" pageWidth="827" pageHeight="1169" math="0" shadow="0">
      <root>
        <mxCell id="WIyWlLk6GJQsqaUBKTNV-0" />
        <mxCell id="WIyWlLk6GJQsqaUBKTNV-1" parent="WIyWlLk6GJQsqaUBKTNV-0" />
        <mxCell id="YXWPqe1yv4GNSdyPixt6-50" value="" style="rounded=0;whiteSpace=wrap;html=1;fillColor=none;" vertex="1" parent="WIyWlLk6GJQsqaUBKTNV-1">
          <mxGeometry x="880" y="140" width="260" height="380" as="geometry" />
        </mxCell>
        <mxCell id="YXWPqe1yv4GNSdyPixt6-51" value="" style="rounded=0;whiteSpace=wrap;html=1;fillColor=none;" vertex="1" parent="WIyWlLk6GJQsqaUBKTNV-1">
          <mxGeometry x="380" y="180" width="490" height="320" as="geometry" />
        </mxCell>
        <mxCell id="YXWPqe1yv4GNSdyPixt6-33" value="" style="rounded=0;whiteSpace=wrap;html=1;fillColor=none;" vertex="1" parent="WIyWlLk6GJQsqaUBKTNV-1">
          <mxGeometry x="260" y="140" width="620" height="380" as="geometry" />
        </mxCell>
        <mxCell id="5bTx0EwJfuGAFKNWrLTd-19" value="" style="image;aspect=fixed;html=1;points=[];align=center;fontSize=12;image=img/lib/azure2/analytics/Azure_Databricks.svg;" parent="WIyWlLk6GJQsqaUBKTNV-1" vertex="1">
          <mxGeometry x="280" y="150" width="46.18" height="50" as="geometry" />
        </mxCell>
        <mxCell id="5bTx0EwJfuGAFKNWrLTd-22" value="" style="image;aspect=fixed;html=1;points=[];align=center;fontSize=12;image=img/lib/azure2/analytics/Power_BI_Embedded.svg;" parent="WIyWlLk6GJQsqaUBKTNV-1" vertex="1">
          <mxGeometry x="920" y="150" width="37.5" height="50" as="geometry" />
        </mxCell>
        <mxCell id="YXWPqe1yv4GNSdyPixt6-13" style="edgeStyle=orthogonalEdgeStyle;rounded=0;orthogonalLoop=1;jettySize=auto;html=1;entryX=0;entryY=0.5;entryDx=0;entryDy=0;" edge="1" parent="WIyWlLk6GJQsqaUBKTNV-1" source="YXWPqe1yv4GNSdyPixt6-0" target="YXWPqe1yv4GNSdyPixt6-4">
          <mxGeometry relative="1" as="geometry">
            <Array as="points">
              <mxPoint x="80" y="299" />
              <mxPoint x="80" y="255" />
            </Array>
          </mxGeometry>
        </mxCell>
        <mxCell id="YXWPqe1yv4GNSdyPixt6-14" style="edgeStyle=orthogonalEdgeStyle;rounded=0;orthogonalLoop=1;jettySize=auto;html=1;" edge="1" parent="WIyWlLk6GJQsqaUBKTNV-1" source="YXWPqe1yv4GNSdyPixt6-0" target="YXWPqe1yv4GNSdyPixt6-8">
          <mxGeometry relative="1" as="geometry" />
        </mxCell>
        <mxCell id="YXWPqe1yv4GNSdyPixt6-15" style="edgeStyle=orthogonalEdgeStyle;rounded=0;orthogonalLoop=1;jettySize=auto;html=1;entryX=0;entryY=0.75;entryDx=0;entryDy=0;" edge="1" parent="WIyWlLk6GJQsqaUBKTNV-1" source="YXWPqe1yv4GNSdyPixt6-0" target="YXWPqe1yv4GNSdyPixt6-9">
          <mxGeometry relative="1" as="geometry">
            <Array as="points">
              <mxPoint x="80" y="299" />
              <mxPoint x="80" y="353" />
              <mxPoint x="100" y="353" />
            </Array>
          </mxGeometry>
        </mxCell>
        <mxCell id="YXWPqe1yv4GNSdyPixt6-0" value="" style="image;aspect=fixed;perimeter=ellipsePerimeter;html=1;align=center;shadow=0;dashed=0;spacingTop=3;image=img/lib/active_directory/database.svg;" vertex="1" parent="WIyWlLk6GJQsqaUBKTNV-1">
          <mxGeometry x="20" y="280" width="50" height="37" as="geometry" />
        </mxCell>
        <mxCell id="YXWPqe1yv4GNSdyPixt6-26" style="edgeStyle=orthogonalEdgeStyle;rounded=0;orthogonalLoop=1;jettySize=auto;html=1;" edge="1" parent="WIyWlLk6GJQsqaUBKTNV-1" source="YXWPqe1yv4GNSdyPixt6-3" target="YXWPqe1yv4GNSdyPixt6-10">
          <mxGeometry relative="1" as="geometry" />
        </mxCell>
        <mxCell id="YXWPqe1yv4GNSdyPixt6-3" value="" style="sketch=0;outlineConnect=0;fontColor=#232F3E;gradientColor=none;fillColor=#232F3D;strokeColor=none;dashed=0;verticalLabelPosition=bottom;verticalAlign=top;align=center;html=1;fontSize=12;fontStyle=0;aspect=fixed;pointerEvents=1;shape=mxgraph.aws4.data_stream;" vertex="1" parent="WIyWlLk6GJQsqaUBKTNV-1">
          <mxGeometry x="20" y="420" width="50" height="50" as="geometry" />
        </mxCell>
        <mxCell id="YXWPqe1yv4GNSdyPixt6-19" style="edgeStyle=orthogonalEdgeStyle;rounded=0;orthogonalLoop=1;jettySize=auto;html=1;exitX=1;exitY=0.5;exitDx=0;exitDy=0;entryX=0;entryY=0.5;entryDx=0;entryDy=0;" edge="1" parent="WIyWlLk6GJQsqaUBKTNV-1" source="YXWPqe1yv4GNSdyPixt6-4" target="YXWPqe1yv4GNSdyPixt6-16">
          <mxGeometry relative="1" as="geometry" />
        </mxCell>
        <mxCell id="YXWPqe1yv4GNSdyPixt6-22" value="Incremental load&lt;div&gt;Workflow&lt;/div&gt;" style="edgeLabel;html=1;align=center;verticalAlign=middle;resizable=0;points=[];" vertex="1" connectable="0" parent="YXWPqe1yv4GNSdyPixt6-19">
          <mxGeometry x="-0.1273" y="2" relative="1" as="geometry">
            <mxPoint x="5" y="2" as="offset" />
          </mxGeometry>
        </mxCell>
        <mxCell id="YXWPqe1yv4GNSdyPixt6-4" value="Customers" style="swimlane;fontStyle=0;childLayout=stackLayout;horizontal=1;startSize=26;fillColor=none;horizontalStack=0;resizeParent=1;resizeParentMax=0;resizeLast=0;collapsible=1;marginBottom=0;html=1;" vertex="1" collapsed="1" parent="WIyWlLk6GJQsqaUBKTNV-1">
          <mxGeometry x="120" y="240" width="130" height="30" as="geometry">
            <mxRectangle x="220" y="400" width="140" height="52" as="alternateBounds" />
          </mxGeometry>
        </mxCell>
        <mxCell id="YXWPqe1yv4GNSdyPixt6-20" style="edgeStyle=orthogonalEdgeStyle;rounded=0;orthogonalLoop=1;jettySize=auto;html=1;exitX=1;exitY=0.5;exitDx=0;exitDy=0;" edge="1" parent="WIyWlLk6GJQsqaUBKTNV-1" source="YXWPqe1yv4GNSdyPixt6-8" target="YXWPqe1yv4GNSdyPixt6-17">
          <mxGeometry relative="1" as="geometry" />
        </mxCell>
        <mxCell id="YXWPqe1yv4GNSdyPixt6-23" value="Incremental load&lt;div&gt;Workflow&lt;br&gt;&lt;/div&gt;" style="edgeLabel;html=1;align=center;verticalAlign=middle;resizable=0;points=[];" vertex="1" connectable="0" parent="YXWPqe1yv4GNSdyPixt6-20">
          <mxGeometry x="-0.2" y="2" relative="1" as="geometry">
            <mxPoint x="10" y="2" as="offset" />
          </mxGeometry>
        </mxCell>
        <mxCell id="YXWPqe1yv4GNSdyPixt6-8" value="Loggers" style="swimlane;fontStyle=0;childLayout=stackLayout;horizontal=1;startSize=26;fillColor=none;horizontalStack=0;resizeParent=1;resizeParentMax=0;resizeLast=0;collapsible=1;marginBottom=0;html=1;" vertex="1" collapsed="1" parent="WIyWlLk6GJQsqaUBKTNV-1">
          <mxGeometry x="120" y="283.5" width="130" height="30" as="geometry">
            <mxRectangle x="220" y="400" width="140" height="52" as="alternateBounds" />
          </mxGeometry>
        </mxCell>
        <mxCell id="YXWPqe1yv4GNSdyPixt6-21" style="edgeStyle=orthogonalEdgeStyle;rounded=0;orthogonalLoop=1;jettySize=auto;html=1;exitX=1;exitY=0.5;exitDx=0;exitDy=0;" edge="1" parent="WIyWlLk6GJQsqaUBKTNV-1" source="YXWPqe1yv4GNSdyPixt6-9" target="YXWPqe1yv4GNSdyPixt6-18">
          <mxGeometry relative="1" as="geometry" />
        </mxCell>
        <mxCell id="YXWPqe1yv4GNSdyPixt6-24" value="Incremental load&lt;div&gt;Workflow&lt;br&gt;&lt;/div&gt;" style="edgeLabel;html=1;align=center;verticalAlign=middle;resizable=0;points=[];" vertex="1" connectable="0" parent="YXWPqe1yv4GNSdyPixt6-21">
          <mxGeometry x="-0.2" y="-1" relative="1" as="geometry">
            <mxPoint x="10" y="-1" as="offset" />
          </mxGeometry>
        </mxCell>
        <mxCell id="YXWPqe1yv4GNSdyPixt6-9" value="Shipments" style="swimlane;fontStyle=0;childLayout=stackLayout;horizontal=1;startSize=26;fillColor=none;horizontalStack=0;resizeParent=1;resizeParentMax=0;resizeLast=0;collapsible=1;marginBottom=0;html=1;" vertex="1" collapsed="1" parent="WIyWlLk6GJQsqaUBKTNV-1">
          <mxGeometry x="120" y="330" width="130" height="30" as="geometry">
            <mxRectangle x="220" y="400" width="140" height="52" as="alternateBounds" />
          </mxGeometry>
        </mxCell>
        <mxCell id="YXWPqe1yv4GNSdyPixt6-28" style="edgeStyle=orthogonalEdgeStyle;rounded=0;orthogonalLoop=1;jettySize=auto;html=1;" edge="1" parent="WIyWlLk6GJQsqaUBKTNV-1" source="YXWPqe1yv4GNSdyPixt6-10" target="YXWPqe1yv4GNSdyPixt6-27">
          <mxGeometry relative="1" as="geometry" />
        </mxCell>
        <mxCell id="YXWPqe1yv4GNSdyPixt6-29" value="Streaming load&lt;div&gt;Workflow&lt;/div&gt;&lt;div&gt;Every hour new data&lt;/div&gt;" style="edgeLabel;html=1;align=center;verticalAlign=middle;resizable=0;points=[];" vertex="1" connectable="0" parent="YXWPqe1yv4GNSdyPixt6-28">
          <mxGeometry x="-0.1455" relative="1" as="geometry">
            <mxPoint as="offset" />
          </mxGeometry>
        </mxCell>
        <mxCell id="YXWPqe1yv4GNSdyPixt6-10" value="Logger_temperature" style="swimlane;fontStyle=0;childLayout=stackLayout;horizontal=1;startSize=26;fillColor=none;horizontalStack=0;resizeParent=1;resizeParentMax=0;resizeLast=0;collapsible=1;marginBottom=0;html=1;" vertex="1" collapsed="1" parent="WIyWlLk6GJQsqaUBKTNV-1">
          <mxGeometry x="120" y="430" width="130" height="30" as="geometry">
            <mxRectangle x="220" y="400" width="140" height="52" as="alternateBounds" />
          </mxGeometry>
        </mxCell>
        <mxCell id="YXWPqe1yv4GNSdyPixt6-41" style="edgeStyle=orthogonalEdgeStyle;rounded=0;orthogonalLoop=1;jettySize=auto;html=1;exitX=1;exitY=0.5;exitDx=0;exitDy=0;entryX=0;entryY=0.5;entryDx=0;entryDy=0;" edge="1" parent="WIyWlLk6GJQsqaUBKTNV-1" source="YXWPqe1yv4GNSdyPixt6-16" target="YXWPqe1yv4GNSdyPixt6-35">
          <mxGeometry relative="1" as="geometry">
            <Array as="points">
              <mxPoint x="600" y="255" />
              <mxPoint x="600" y="365" />
            </Array>
          </mxGeometry>
        </mxCell>
        <mxCell id="YXWPqe1yv4GNSdyPixt6-16" value="Customers" style="swimlane;fontStyle=0;childLayout=stackLayout;horizontal=1;startSize=26;fillColor=none;horizontalStack=0;resizeParent=1;resizeParentMax=0;resizeLast=0;collapsible=1;marginBottom=0;html=1;" vertex="1" collapsed="1" parent="WIyWlLk6GJQsqaUBKTNV-1">
          <mxGeometry x="400" y="240" width="130" height="30" as="geometry">
            <mxRectangle x="220" y="400" width="140" height="52" as="alternateBounds" />
          </mxGeometry>
        </mxCell>
        <mxCell id="YXWPqe1yv4GNSdyPixt6-42" style="edgeStyle=orthogonalEdgeStyle;rounded=0;orthogonalLoop=1;jettySize=auto;html=1;exitX=1;exitY=0.5;exitDx=0;exitDy=0;entryX=0;entryY=0.5;entryDx=0;entryDy=0;" edge="1" parent="WIyWlLk6GJQsqaUBKTNV-1" source="YXWPqe1yv4GNSdyPixt6-17" target="YXWPqe1yv4GNSdyPixt6-35">
          <mxGeometry relative="1" as="geometry">
            <mxPoint x="620" y="299" as="targetPoint" />
            <Array as="points">
              <mxPoint x="600" y="299" />
              <mxPoint x="600" y="365" />
            </Array>
          </mxGeometry>
        </mxCell>
        <mxCell id="YXWPqe1yv4GNSdyPixt6-17" value="Loggers" style="swimlane;fontStyle=0;childLayout=stackLayout;horizontal=1;startSize=26;fillColor=none;horizontalStack=0;resizeParent=1;resizeParentMax=0;resizeLast=0;collapsible=1;marginBottom=0;html=1;" vertex="1" collapsed="1" parent="WIyWlLk6GJQsqaUBKTNV-1">
          <mxGeometry x="400" y="283.5" width="130" height="30" as="geometry">
            <mxRectangle x="220" y="400" width="140" height="52" as="alternateBounds" />
          </mxGeometry>
        </mxCell>
        <mxCell id="YXWPqe1yv4GNSdyPixt6-43" style="edgeStyle=orthogonalEdgeStyle;rounded=0;orthogonalLoop=1;jettySize=auto;html=1;exitX=1;exitY=0.25;exitDx=0;exitDy=0;entryX=0;entryY=0.5;entryDx=0;entryDy=0;" edge="1" parent="WIyWlLk6GJQsqaUBKTNV-1" source="YXWPqe1yv4GNSdyPixt6-18" target="YXWPqe1yv4GNSdyPixt6-35">
          <mxGeometry relative="1" as="geometry">
            <Array as="points">
              <mxPoint x="600" y="338" />
              <mxPoint x="600" y="365" />
            </Array>
          </mxGeometry>
        </mxCell>
        <mxCell id="YXWPqe1yv4GNSdyPixt6-18" value="Shipments" style="swimlane;fontStyle=0;childLayout=stackLayout;horizontal=1;startSize=26;fillColor=none;horizontalStack=0;resizeParent=1;resizeParentMax=0;resizeLast=0;collapsible=1;marginBottom=0;html=1;" vertex="1" collapsed="1" parent="WIyWlLk6GJQsqaUBKTNV-1">
          <mxGeometry x="400" y="330" width="130" height="30" as="geometry">
            <mxRectangle x="220" y="400" width="140" height="52" as="alternateBounds" />
          </mxGeometry>
        </mxCell>
        <mxCell id="YXWPqe1yv4GNSdyPixt6-44" style="edgeStyle=orthogonalEdgeStyle;rounded=0;orthogonalLoop=1;jettySize=auto;html=1;entryX=0;entryY=0.5;entryDx=0;entryDy=0;" edge="1" parent="WIyWlLk6GJQsqaUBKTNV-1" source="YXWPqe1yv4GNSdyPixt6-27" target="YXWPqe1yv4GNSdyPixt6-35">
          <mxGeometry relative="1" as="geometry">
            <Array as="points">
              <mxPoint x="600" y="445" />
              <mxPoint x="600" y="365" />
            </Array>
          </mxGeometry>
        </mxCell>
        <mxCell id="YXWPqe1yv4GNSdyPixt6-45" value="Incremental load&lt;div&gt;Workflow&lt;/div&gt;" style="edgeLabel;html=1;align=center;verticalAlign=middle;resizable=0;points=[];" vertex="1" connectable="0" parent="YXWPqe1yv4GNSdyPixt6-44">
          <mxGeometry x="0.4966" y="-2" relative="1" as="geometry">
            <mxPoint as="offset" />
          </mxGeometry>
        </mxCell>
        <mxCell id="YXWPqe1yv4GNSdyPixt6-27" value="Logger_temperature" style="swimlane;fontStyle=0;childLayout=stackLayout;horizontal=1;startSize=26;fillColor=none;horizontalStack=0;resizeParent=1;resizeParentMax=0;resizeLast=0;collapsible=1;marginBottom=0;html=1;" vertex="1" collapsed="1" parent="WIyWlLk6GJQsqaUBKTNV-1">
          <mxGeometry x="400" y="430" width="130" height="30" as="geometry">
            <mxRectangle x="220" y="400" width="140" height="52" as="alternateBounds" />
          </mxGeometry>
        </mxCell>
        <mxCell id="YXWPqe1yv4GNSdyPixt6-31" value="" style="rounded=0;whiteSpace=wrap;html=1;fillColor=none;" vertex="1" parent="WIyWlLk6GJQsqaUBKTNV-1">
          <mxGeometry x="10" y="140" width="250" height="230" as="geometry" />
        </mxCell>
        <mxCell id="YXWPqe1yv4GNSdyPixt6-32" value="" style="rounded=0;whiteSpace=wrap;html=1;fillColor=none;" vertex="1" parent="WIyWlLk6GJQsqaUBKTNV-1">
          <mxGeometry x="10" y="370" width="250" height="150" as="geometry" />
        </mxCell>
        <mxCell id="YXWPqe1yv4GNSdyPixt6-48" style="edgeStyle=orthogonalEdgeStyle;rounded=0;orthogonalLoop=1;jettySize=auto;html=1;exitX=1;exitY=0.5;exitDx=0;exitDy=0;entryX=0;entryY=0.5;entryDx=0;entryDy=0;" edge="1" parent="WIyWlLk6GJQsqaUBKTNV-1" source="YXWPqe1yv4GNSdyPixt6-35" target="YXWPqe1yv4GNSdyPixt6-47">
          <mxGeometry relative="1" as="geometry" />
        </mxCell>
        <mxCell id="YXWPqe1yv4GNSdyPixt6-49" value="Dashboard refresh" style="edgeLabel;html=1;align=center;verticalAlign=middle;resizable=0;points=[];" vertex="1" connectable="0" parent="YXWPqe1yv4GNSdyPixt6-48">
          <mxGeometry relative="1" as="geometry">
            <mxPoint as="offset" />
          </mxGeometry>
        </mxCell>
        <mxCell id="YXWPqe1yv4GNSdyPixt6-35" value="Shipments_analysis" style="swimlane;fontStyle=0;childLayout=stackLayout;horizontal=1;startSize=26;fillColor=none;horizontalStack=0;resizeParent=1;resizeParentMax=0;resizeLast=0;collapsible=1;marginBottom=0;html=1;" vertex="1" collapsed="1" parent="WIyWlLk6GJQsqaUBKTNV-1">
          <mxGeometry x="730" y="350" width="130" height="30" as="geometry">
            <mxRectangle x="220" y="400" width="140" height="52" as="alternateBounds" />
          </mxGeometry>
        </mxCell>
        <mxCell id="YXWPqe1yv4GNSdyPixt6-47" value="Shipments_analysis" style="swimlane;fontStyle=0;childLayout=stackLayout;horizontal=1;startSize=26;fillColor=none;horizontalStack=0;resizeParent=1;resizeParentMax=0;resizeLast=0;collapsible=1;marginBottom=0;html=1;" vertex="1" collapsed="1" parent="WIyWlLk6GJQsqaUBKTNV-1">
          <mxGeometry x="1000" y="350" width="130" height="30" as="geometry">
            <mxRectangle x="220" y="400" width="140" height="52" as="alternateBounds" />
          </mxGeometry>
        </mxCell>
        <mxCell id="YXWPqe1yv4GNSdyPixt6-52" value="UNITY CATALOG&lt;div&gt;DELTA TABLES&lt;/div&gt;" style="text;html=1;align=left;verticalAlign=middle;whiteSpace=wrap;rounded=0;" vertex="1" parent="WIyWlLk6GJQsqaUBKTNV-1">
          <mxGeometry x="384" y="180" width="116" height="30" as="geometry" />
        </mxCell>
        <mxCell id="YXWPqe1yv4GNSdyPixt6-54" value="" style="rounded=0;whiteSpace=wrap;html=1;fillColor=none;" vertex="1" parent="WIyWlLk6GJQsqaUBKTNV-1">
          <mxGeometry y="90" width="1150" height="440" as="geometry" />
        </mxCell>
        <mxCell id="YXWPqe1yv4GNSdyPixt6-55" value="DATA FLOW" style="text;html=1;align=center;verticalAlign=middle;whiteSpace=wrap;rounded=0;" vertex="1" parent="WIyWlLk6GJQsqaUBKTNV-1">
          <mxGeometry y="90" width="90" height="30" as="geometry" />
        </mxCell>
      </root>
    </mxGraphModel>
  </diagram>
</mxfile>
